M48
; DRILL file KiCad 10.0.3 date 2026-08-18T22:58:53
; FORMAT={-:-/ absolute / metric / decimal}
; #@! TF.CreationDate,2026-08-18T22:58:53-04:00
; #@! TF.GenerationSoftware,Kicad,Pcbnew,10.0.3
; #@! TF.FileFunction,Plated,1,2,PTH
FMAT,2
METRIC
; #@! TA.AperFunction,Plated,PTH,ComponentDrill
T1C0.200
; #@! TA.AperFunction,Plated,PTH,ViaDrill
T2C0.300
; #@! TA.AperFunction,Plated,PTH,ComponentDrill
T3C0.750
; #@! TA.AperFunction,Plated,PTH,ComponentDrill
T4C0.800
; #@! TA.AperFunction,Plated,PTH,ComponentDrill
T5C0.889
; #@! TA.AperFunction,Plated,PTH,ComponentDrill
T6C1.000
; #@! TA.AperFunction,Plated,PTH,ComponentDrill
T7C1.100
; #@! TA.AperFunction,Plated,PTH,ComponentDrill
T8C1.500
; #@! TA.AperFunction,Plated,PTH,ComponentDrill
T9C2.000
%
G90
G05
T1
X208.0Y-86.6
X208.0Y-88.0
X209.2Y-86.6
X209.2Y-88.0
X210.4Y-86.6
X210.4Y-88.0
T2
X206.1Y-89.7
T3
X167.9Y-85.0
X167.9Y-87.0
T4
X215.0Y-110.0
X215.0Y-112.0
X215.0Y-114.0
T5
X182.38Y-72.38
X182.38Y-74.92
X182.38Y-77.46
X182.38Y-80.0
X182.38Y-82.54
X182.38Y-85.08
X182.38Y-87.62
X197.62Y-72.38
X197.62Y-74.92
X197.62Y-77.46
X197.62Y-80.0
X197.62Y-82.54
X197.62Y-85.08
X197.62Y-87.62
T6
X178.57Y-93.27
X178.57Y-146.73
X181.11Y-93.27
X181.11Y-146.73
X183.65Y-93.27
X183.65Y-146.73
X186.19Y-93.27
X186.19Y-146.73
X188.73Y-93.27
X188.73Y-146.73
X191.27Y-93.27
X191.27Y-146.73
X193.81Y-93.27
X193.81Y-146.73
X196.35Y-93.27
X196.35Y-146.73
X198.89Y-93.27
X198.89Y-146.73
X201.43Y-93.27
X201.43Y-146.73
T7
X164.0Y-108.5
X164.0Y-115.0
X168.5Y-108.5
X168.5Y-115.0
T8
X215.0Y-107.9
X215.0Y-116.1
T9
X175.0Y-94.5
X175.0Y-145.5
X205.0Y-94.5
X205.0Y-145.5
M30
